# xmcd CD database file
#
# Track frame offsets:
#	150
#	14592
#	29157
#	44545
#	66075
#	82592
#	96092
#	111140
#	126022
#	144842
#	163700
#	178527
#
# Disc length: 2567 seconds
#
# Revision: 0
# Processed by: cddbd v1.5.1PL0 Copyright (c) Steve Scherf et al.
# Submitted via: CDex 1.51
#
DISCID=990a050c
DTITLE=Jim Hendricks - Under the Western Sky
DYEAR=1995
DGENRE=Country
TTITLE0=Cool Water
TTITLE1=Riders In The Sky
TTITLE2=The Streets Of Laredo
TTITLE3=El Paso
TTITLE4=Red River Valley
TTITLE5=Back In The Saddle Again
TTITLE6=Tumbling Tumbleweeds
TTITLE7=San Antonio Rose
TTITLE8=Home On The Range
TTITLE9=Oklahoma Hills
TTITLE10=Mexicali Rose
TTITLE11=What A Friend
EXTD=YEAR: 1995
EXTT0=
EXTT1=
EXTT2=
EXTT3=
EXTT4=
EXTT5=
EXTT6=
EXTT7=
EXTT8=
EXTT9=
EXTT10=
EXTT11=
PLAYORDER=
